<svg width="256" height="256" viewBox="0 0 256 256" fill="none" xmlns="http://www.w3.org/2000/svg">
	<path opacity="0.1" d="M128 218C177.706 218 218 177.706 218 128C218 78.2944 177.706 38 128 38C78.2944 38 38 78.2944 38 128C38 177.706 78.2944 218 128 218Z" fill="#F59E0B"/>
	<path opacity="0.15" d="M128 203C169.421 203 203 169.421 203 128C203 86.5786 169.421 53 128 53C86.5786 53 53 86.5786 53 128C53 169.421 86.5786 203 128 203Z" fill="#F59E0B"/>
	<path d="M128 205C155.614 205 178 180.376 178 150C178 119.624 155.614 95 128 95C100.386 95 78 119.624 78 150C78 180.376 100.386 205 128 205Z" fill="url(#paint0_linear_2_546)"/>
	<path opacity="0.8" d="M98.0655 172.658C106.825 168.573 109.196 155.118 103.36 142.604C97.5252 130.091 85.694 123.258 76.9345 127.342C68.1751 131.427 65.8045 144.882 71.6396 157.396C77.4748 169.909 89.306 176.742 98.0655 172.658Z" fill="#F59E0B"/>
	<path opacity="0.8" d="M157.935 172.658C166.694 176.742 178.525 169.909 184.36 157.396C190.196 144.882 187.825 131.427 179.065 127.342C170.306 123.258 158.475 130.091 152.64 142.604C146.804 155.118 149.175 168.573 157.935 172.658Z" fill="#F59E0B"/>
	<path d="M128 145C150.091 145 168 127.091 168 105C168 82.9086 150.091 65 128 65C105.909 65 88 82.9086 88 105C88 127.091 105.909 145 128 145Z" fill="url(#paint1_linear_2_546)"/>
	<path opacity="0.4" d="M100 121.5C104.971 121.5 109 117.471 109 112.5C109 107.529 104.971 103.5 100 103.5C95.0294 103.5 91 107.529 91 112.5C91 117.471 95.0294 121.5 100 121.5Z" fill="#FB923C"/>
	<path opacity="0.4" d="M156 121.5C160.971 121.5 165 117.471 165 112.5C165 107.529 160.971 103.5 156 103.5C151.029 103.5 147 107.529 147 112.5C147 117.471 151.029 121.5 156 121.5Z" fill="#FB923C"/>
	<path d="M128 107.5H145L136.5 117.5L128 107.5Z" fill="#F97316"/>
	<path opacity="0.5" d="M128 107.5L136.5 117.5L128 115V107.5Z" fill="#EA580C"/>
	<path d="M112.5 107C116.366 107 119.5 103.866 119.5 100C119.5 96.134 116.366 93 112.5 93C108.634 93 105.5 96.134 105.5 100C105.5 103.866 108.634 107 112.5 107Z" fill="#1F2937"/>
	<path d="M115 101C116.657 101 118 99.6569 118 98C118 96.3431 116.657 95 115 95C113.343 95 112 96.3431 112 98C112 99.6569 113.343 101 115 101Z" fill="white"/>
	<path opacity="0.6" d="M116 100.5C116.828 100.5 117.5 99.8284 117.5 99C117.5 98.1716 116.828 97.5 116 97.5C115.172 97.5 114.5 98.1716 114.5 99C114.5 99.8284 115.172 100.5 116 100.5Z" fill="white"/>
	<path d="M143.5 107C147.366 107 150.5 103.866 150.5 100C150.5 96.134 147.366 93 143.5 93C139.634 93 136.5 96.134 136.5 100C136.5 103.866 139.634 107 143.5 107Z" fill="#1F2937"/>
	<path d="M146 101C147.657 101 149 99.6569 149 98C149 96.3431 147.657 95 146 95C144.343 95 143 96.3431 143 98C143 99.6569 144.343 101 146 101Z" fill="white"/>
	<path opacity="0.6" d="M147 100.5C147.828 100.5 148.5 99.8284 148.5 99C148.5 98.1716 147.828 97.5 147 97.5C146.172 97.5 145.5 98.1716 145.5 99C145.5 99.8284 146.172 100.5 147 100.5Z" fill="white"/>
	<path d="M107.5 200L100 210" stroke="#F97316" stroke-width="4" stroke-linecap="round"/>
	<path d="M107.5 200V211" stroke="#F97316" stroke-width="4" stroke-linecap="round"/>
	<path d="M107.5 200L115 210" stroke="#F97316" stroke-width="4" stroke-linecap="round"/>
	<path d="M148.5 200L141 210" stroke="#F97316" stroke-width="4" stroke-linecap="round"/>
	<path d="M148.5 200V211" stroke="#F97316" stroke-width="4" stroke-linecap="round"/>
	<path d="M148.5 200L156 210" stroke="#F97316" stroke-width="4" stroke-linecap="round"/>
	<path d="M128 65V45" stroke="#F97316" stroke-width="4" stroke-linecap="round"/>
	<path d="M128 46C131.314 46 134 43.3137 134 40C134 36.6863 131.314 34 128 34C124.686 34 122 36.6863 122 40C122 43.3137 124.686 46 128 46Z" fill="#F97316"/>
	<path d="M66 120H44C41.7909 120 40 121.791 40 124V138.5C40 140.709 41.7909 142.5 44 142.5H66C68.2091 142.5 70 140.709 70 138.5V124C70 121.791 68.2091 120 66 120Z" fill="#1F2937" stroke="#374151" stroke-width="1.5"/>
	<path d="M65.5 122.5H44.5C43.3954 122.5 42.5 123.395 42.5 124.5V138C42.5 139.105 43.3954 140 44.5 140H65.5C66.6046 140 67.5 139.105 67.5 138V124.5C67.5 123.395 66.6046 122.5 65.5 122.5Z" fill="#4B5563"/>
	<path d="M47.5 129C48.3284 129 49 128.328 49 127.5C49 126.672 48.3284 126 47.5 126C46.6716 126 46 126.672 46 127.5C46 128.328 46.6716 129 47.5 129Z" fill="#1F2937"/>
	<path d="M52.5 129C53.3284 129 54 128.328 54 127.5C54 126.672 53.3284 126 52.5 126C51.6716 126 51 126.672 51 127.5C51 128.328 51.6716 129 52.5 129Z" fill="#1F2937"/>
	<path d="M57.5 129C58.3284 129 59 128.328 59 127.5C59 126.672 58.3284 126 57.5 126C56.6716 126 56 126.672 56 127.5C56 128.328 56.6716 129 57.5 129Z" fill="#1F2937"/>
	<path d="M62.5 129C63.3284 129 64 128.328 64 127.5C64 126.672 63.3284 126 62.5 126C61.6716 126 61 126.672 61 127.5C61 128.328 61.6716 129 62.5 129Z" fill="#1F2937"/>
	<path d="M50 134C50.8284 134 51.5 133.328 51.5 132.5C51.5 131.672 50.8284 131 50 131C49.1716 131 48.5 131.672 48.5 132.5C48.5 133.328 49.1716 134 50 134Z" fill="#1F2937"/>
	<path d="M55 134C55.8284 134 56.5 133.328 56.5 132.5C56.5 131.672 55.8284 131 55 131C54.1716 131 53.5 131.672 53.5 132.5C53.5 133.328 54.1716 134 55 134Z" fill="#1F2937"/>
	<path d="M60 134C60.8284 134 61.5 133.328 61.5 132.5C61.5 131.672 60.8284 131 60 131C59.1716 131 58.5 131.672 58.5 132.5C58.5 133.328 59.1716 134 60 134Z" fill="#1F2937"/>
	<path d="M52.5 139C53.3284 139 54 138.328 54 137.5C54 136.672 53.3284 136 52.5 136C51.6716 136 51 136.672 51 137.5C51 138.328 51.6716 139 52.5 139Z" fill="#1F2937"/>
	<path d="M57.5 139C58.3284 139 59 138.328 59 137.5C59 136.672 58.3284 136 57.5 136C56.6716 136 56 136.672 56 137.5C56 138.328 56.6716 139 57.5 139Z" fill="#1F2937"/>
	<path d="M63.5 144H46.5C45.6716 144 45 144.672 45 145.5V148.5C45 149.328 45.6716 150 46.5 150H63.5C64.3284 150 65 149.328 65 148.5V145.5C65 144.672 64.3284 144 63.5 144Z" fill="#F59E0B"/>
	<path d="M48.7919 148.5V145.591H49.9396C50.1593 145.591 50.3468 145.63 50.5021 145.709C50.6584 145.786 50.7772 145.897 50.8587 146.04C50.9411 146.182 50.9822 146.349 50.9822 146.541C50.9822 146.734 50.9406 146.901 50.8572 147.04C50.7739 147.178 50.6532 147.284 50.495 147.358C50.3378 147.432 50.1475 147.469 49.924 147.469H49.1555V146.974H49.8246C49.942 146.974 50.0395 146.958 50.1172 146.926C50.1948 146.894 50.2526 146.846 50.2905 146.781C50.3293 146.717 50.3487 146.637 50.3487 146.541C50.3487 146.445 50.3293 146.363 50.2905 146.297C50.2526 146.231 50.1944 146.18 50.1158 146.146C50.0381 146.111 49.9401 146.094 49.8217 146.094H49.407V148.5H48.7919ZM50.3629 147.176L51.0859 148.5H50.407L49.6996 147.176H50.3629ZM52.995 146.428C52.9837 146.313 52.9349 146.224 52.8487 146.161C52.7625 146.097 52.6456 146.065 52.4979 146.065C52.3975 146.065 52.3127 146.08 52.2436 146.108C52.1745 146.135 52.1214 146.174 52.0845 146.223C52.0485 146.272 52.0305 146.328 52.0305 146.391C52.0286 146.443 52.0395 146.488 52.0632 146.527C52.0878 146.566 52.1214 146.599 52.1641 146.628C52.2067 146.655 52.2559 146.679 52.3118 146.7C52.3677 146.72 52.4273 146.737 52.4908 146.751L52.7521 146.814C52.879 146.842 52.9955 146.88 53.1016 146.928C53.2076 146.975 53.2995 147.033 53.3771 147.102C53.4548 147.171 53.5149 147.253 53.5575 147.347C53.6011 147.44 53.6233 147.548 53.6243 147.669C53.6233 147.847 53.5779 148.001 53.4879 148.132C53.3989 148.262 53.2701 148.363 53.1016 148.435C52.9339 148.506 52.7318 148.541 52.495 148.541C52.2602 148.541 52.0556 148.505 51.8814 148.433C51.7081 148.361 51.5727 148.255 51.4751 148.114C51.3786 147.972 51.3279 147.796 51.3232 147.587H51.9183C51.925 147.684 51.9529 147.766 52.0021 147.831C52.0523 147.895 52.1191 147.944 52.2024 147.977C52.2867 148.009 52.3819 148.026 52.4879 148.026C52.5921 148.026 52.6825 148.01 52.7592 147.98C52.8369 147.95 52.897 147.908 52.9396 147.854C52.9822 147.8 53.0036 147.738 53.0036 147.668C53.0036 147.602 52.9841 147.547 52.9453 147.503C52.9074 147.458 52.8516 147.42 52.7777 147.389C52.7048 147.358 52.6153 147.33 52.5092 147.304L52.1925 147.224C51.9472 147.165 51.7536 147.071 51.6115 146.945C51.4695 146.818 51.3989 146.647 51.3999 146.432C51.3989 146.256 51.4458 146.102 51.5405 145.97C51.6361 145.839 51.7673 145.736 51.9339 145.662C52.1006 145.588 52.29 145.551 52.5021 145.551C52.718 145.551 52.9065 145.588 53.0675 145.662C53.2294 145.736 53.3554 145.839 53.4453 145.97C53.5353 146.102 53.5817 146.254 53.5845 146.428H52.995ZM54.021 148.5V148.057L55.0565 147.098C55.1445 147.013 55.2184 146.936 55.2781 146.868C55.3387 146.8 55.3846 146.733 55.4158 146.668C55.4471 146.601 55.4627 146.53 55.4627 146.453C55.4627 146.368 55.4433 146.295 55.4045 146.233C55.3656 146.17 55.3126 146.123 55.2454 146.089C55.1781 146.055 55.1019 146.038 55.0167 146.038C54.9277 146.038 54.85 146.056 54.7837 146.092C54.7174 146.128 54.6663 146.18 54.6303 146.247C54.5943 146.314 54.5763 146.394 54.5763 146.487H53.9925C53.9925 146.297 54.0356 146.132 54.1218 145.991C54.208 145.851 54.3287 145.743 54.484 145.666C54.6393 145.589 54.8183 145.551 55.021 145.551C55.2293 145.551 55.4106 145.588 55.565 145.662C55.7203 145.735 55.841 145.836 55.9272 145.966C56.0134 146.096 56.0565 146.244 56.0565 146.412C56.0565 146.522 56.0347 146.63 55.9911 146.737C55.9485 146.844 55.8723 146.963 55.7624 147.094C55.6526 147.223 55.4978 147.379 55.2979 147.561L54.8732 147.977V147.997H56.0948V148.5H54.021ZM57.6158 148.54C57.4036 148.54 57.2147 148.503 57.049 148.43C56.8842 148.357 56.754 148.255 56.6584 148.126C56.5637 147.997 56.5149 147.847 56.5121 147.678H57.1314C57.1352 147.749 57.1584 147.811 57.201 147.865C57.2446 147.918 57.3023 147.959 57.3743 147.989C57.4463 148.018 57.5272 148.033 57.6172 148.033C57.7109 148.033 57.7938 148.016 57.8658 147.983C57.9377 147.95 57.9941 147.904 58.0348 147.845C58.0755 147.786 58.0959 147.719 58.0959 147.642C58.0959 147.564 58.0741 147.496 58.0305 147.436C57.9879 147.375 57.9264 147.328 57.8459 147.294C57.7663 147.26 57.6716 147.243 57.5618 147.243H57.2905V146.791H57.5618C57.6546 146.791 57.7365 146.775 57.8075 146.743C57.8795 146.711 57.9354 146.666 57.9751 146.609C58.0149 146.552 58.0348 146.484 58.0348 146.408C58.0348 146.335 58.0173 146.271 57.9822 146.216C57.9482 146.16 57.8999 146.116 57.8374 146.085C57.7758 146.054 57.7038 146.038 57.6214 146.038C57.5381 146.038 57.4619 146.054 57.3928 146.084C57.3236 146.113 57.2682 146.155 57.2266 146.21C57.1849 146.265 57.1626 146.33 57.1598 146.403H56.5703C56.5732 146.236 56.621 146.088 56.7138 145.96C56.8066 145.832 56.9316 145.732 57.0888 145.661C57.2469 145.588 57.4254 145.551 57.6243 145.551C57.825 145.551 58.0007 145.588 58.1513 145.661C58.3018 145.733 58.4188 145.832 58.5021 145.956C58.5864 146.079 58.6281 146.217 58.6271 146.371C58.6281 146.534 58.5774 146.67 58.4751 146.778C58.3738 146.887 58.2417 146.956 58.0788 146.986V147.009C58.2929 147.036 58.4557 147.11 58.5675 147.232C58.6802 147.352 58.736 147.502 58.7351 147.683C58.736 147.849 58.6882 147.996 58.5916 148.125C58.496 148.254 58.3639 148.355 58.1953 148.429C58.0268 148.503 57.8336 148.54 57.6158 148.54ZM59.1772 148.5V148.057L60.2127 147.098C60.3008 147.013 60.3746 146.936 60.4343 146.868C60.4949 146.8 60.5408 146.733 60.5721 146.668C60.6033 146.601 60.619 146.53 60.619 146.453C60.619 146.368 60.5996 146.295 60.5607 146.233C60.5219 146.17 60.4689 146.123 60.4016 146.089C60.3344 146.055 60.2582 146.038 60.1729 146.038C60.0839 146.038 60.0063 146.056 59.94 146.092C59.8737 146.128 59.8226 146.18 59.7866 146.247C59.7506 146.314 59.7326 146.394 59.7326 146.487H59.1488C59.1488 146.297 59.1919 146.132 59.2781 145.991C59.3642 145.851 59.485 145.743 59.6403 145.666C59.7956 145.589 59.9746 145.551 60.1772 145.551C60.3855 145.551 60.5669 145.588 60.7212 145.662C60.8765 145.735 60.9973 145.836 61.0835 145.966C61.1696 146.096 61.2127 146.244 61.2127 146.412C61.2127 146.522 61.1909 146.63 61.1474 146.737C61.1048 146.844 61.0285 146.963 60.9187 147.094C60.8088 147.223 60.654 147.379 60.4542 147.561L60.0295 147.977V147.997H61.2511V148.5H59.1772Z" fill="white"/>
	<path d="M212 120H190C187.791 120 186 121.791 186 124V138.5C186 140.709 187.791 142.5 190 142.5H212C214.209 142.5 216 140.709 216 138.5V124C216 121.791 214.209 120 212 120Z" fill="#1F2937" stroke="#374151" stroke-width="1.5"/>
	<path d="M211.5 122.5H190.5C189.395 122.5 188.5 123.395 188.5 124.5V138C188.5 139.105 189.395 140 190.5 140H211.5C212.605 140 213.5 139.105 213.5 138V124.5C213.5 123.395 212.605 122.5 211.5 122.5Z" fill="#4B5563"/>
	<path d="M207.5 127.5H194.5C193.948 127.5 193.5 127.948 193.5 128.5V136.5C193.5 137.052 193.948 137.5 194.5 137.5H207.5C208.052 137.5 208.5 137.052 208.5 136.5V128.5C208.5 127.948 208.052 127.5 207.5 127.5Z" fill="#1F2937"/>
	<path d="M199.5 130H196.5C196.224 130 196 130.224 196 130.5V134.5C196 134.776 196.224 135 196.5 135H199.5C199.776 135 200 134.776 200 134.5V130.5C200 130.224 199.776 130 199.5 130Z" fill="#F59E0B"/>
	<path d="M205.5 130H202.5C202.224 130 202 130.224 202 130.5V134.5C202 134.776 202.224 135 202.5 135H205.5C205.776 135 206 134.776 206 134.5V130.5C206 130.224 205.776 130 205.5 130Z" fill="#F59E0B"/>
	<path d="M209.5 144H192.5C191.672 144 191 144.672 191 145.5V148.5C191 149.328 191.672 150 192.5 150H209.5C210.328 150 211 149.328 211 148.5V145.5C211 144.672 210.328 144 209.5 144Z" fill="#10B981"/>
	<path d="M199.208 145.591H199.823V147.48C199.823 147.692 199.772 147.878 199.671 148.037C199.571 148.196 199.43 148.32 199.249 148.409C199.068 148.497 198.858 148.541 198.617 148.541C198.376 148.541 198.164 148.497 197.983 148.409C197.803 148.32 197.662 148.196 197.562 148.037C197.461 147.878 197.411 147.692 197.411 147.48V145.591H198.026V147.428C198.026 147.538 198.05 147.637 198.099 147.723C198.148 147.809 198.217 147.877 198.306 147.926C198.395 147.975 198.499 148 198.617 148C198.736 148 198.84 147.975 198.928 147.926C199.017 147.877 199.086 147.809 199.134 147.723C199.183 147.637 199.208 147.538 199.208 147.428V145.591ZM201.907 146.428C201.896 146.313 201.847 146.224 201.761 146.161C201.675 146.097 201.558 146.065 201.41 146.065C201.31 146.065 201.225 146.08 201.156 146.108C201.087 146.135 201.034 146.174 200.997 146.223C200.961 146.272 200.943 146.328 200.943 146.391C200.941 146.443 200.952 146.488 200.975 146.527C201 146.566 201.034 146.599 201.076 146.628C201.119 146.655 201.168 146.679 201.224 146.7C201.28 146.72 201.339 146.737 201.403 146.751L201.664 146.814C201.791 146.842 201.908 146.88 202.014 146.928C202.12 146.975 202.212 147.033 202.289 147.102C202.367 147.171 202.427 147.253 202.47 147.347C202.513 147.44 202.535 147.548 202.536 147.669C202.535 147.847 202.49 148.001 202.4 148.132C202.311 148.262 202.182 148.363 202.014 148.435C201.846 148.506 201.644 148.541 201.407 148.541C201.172 148.541 200.968 148.505 200.794 148.433C200.62 148.361 200.485 148.255 200.387 148.114C200.291 147.972 200.24 147.796 200.235 147.587H200.83C200.837 147.684 200.865 147.766 200.914 147.831C200.964 147.895 201.031 147.944 201.115 147.977C201.199 148.009 201.294 148.026 201.4 148.026C201.504 148.026 201.595 148.01 201.671 147.98C201.749 147.95 201.809 147.908 201.852 147.854C201.894 147.8 201.916 147.738 201.916 147.668C201.916 147.602 201.896 147.547 201.857 147.503C201.82 147.458 201.764 147.42 201.69 147.389C201.617 147.358 201.527 147.33 201.421 147.304L201.105 147.224C200.859 147.165 200.666 147.071 200.524 146.945C200.382 146.818 200.311 146.647 200.312 146.432C200.311 146.256 200.358 146.102 200.453 145.97C200.548 145.839 200.679 145.736 200.846 145.662C201.013 145.588 201.202 145.551 201.414 145.551C201.63 145.551 201.819 145.588 201.98 145.662C202.142 145.736 202.267 145.839 202.357 145.97C202.447 146.102 202.494 146.254 202.497 146.428H201.907ZM202.95 148.5V145.591H204.115C204.329 145.591 204.507 145.623 204.65 145.686C204.793 145.75 204.901 145.838 204.973 145.95C205.045 146.062 205.081 146.191 205.081 146.337C205.081 146.45 205.058 146.55 205.013 146.636C204.967 146.722 204.905 146.792 204.825 146.847C204.747 146.901 204.657 146.939 204.555 146.962V146.99C204.666 146.995 204.77 147.026 204.866 147.084C204.964 147.142 205.043 147.223 205.104 147.327C205.164 147.43 205.194 147.553 205.194 147.696C205.194 147.85 205.156 147.988 205.079 148.109C205.004 148.23 204.891 148.325 204.743 148.395C204.594 148.465 204.411 148.5 204.193 148.5H202.95ZM203.565 147.997H204.067C204.238 147.997 204.363 147.964 204.442 147.899C204.52 147.833 204.559 147.745 204.559 147.635C204.559 147.554 204.54 147.483 204.501 147.422C204.462 147.36 204.407 147.312 204.335 147.277C204.264 147.242 204.179 147.224 204.081 147.224H203.565V147.997ZM203.565 146.808H204.021C204.105 146.808 204.18 146.794 204.246 146.764C204.312 146.734 204.364 146.691 204.402 146.636C204.441 146.581 204.46 146.516 204.46 146.439C204.46 146.334 204.423 146.249 204.348 146.185C204.274 146.12 204.169 146.088 204.032 146.088H203.565V146.808Z" fill="white"/>
	<path d="M70 131C83.3333 131 93.3333 134 100 140" stroke="#F59E0B" stroke-width="3" stroke-linecap="round"/>
	<path d="M70 131C83.3333 131 93.3333 134 100 140" stroke="#FCD34D" stroke-width="1.5" stroke-linecap="round"/>
	<path d="M186 131C172.667 131 162.667 134 156 140" stroke="#10B981" stroke-width="3" stroke-linecap="round"/>
	<path d="M186 131C172.667 131 162.667 134 156 140" stroke="#34D399" stroke-width="1.5" stroke-linecap="round"/>
	<path d="M75 117.5C79.1421 117.5 82.5 114.142 82.5 110C82.5 105.858 79.1421 102.5 75 102.5C70.8579 102.5 67.5 105.858 67.5 110C67.5 114.142 70.8579 117.5 75 117.5Z" fill="#EF4444"/>
	<path d="M71.3146 108.897V108.136H74.8984V108.897H73.5625V112.5H72.6506V108.897H71.3146ZM76.3537 108.136L77.2337 109.624H77.2678L78.152 108.136H79.1939L77.8622 110.318L79.2237 112.5H78.1626L77.2678 111.011H77.2337L76.3388 112.5H75.282L76.6477 110.318L75.3075 108.136H76.3537Z" fill="white"/>
	<path d="M181 117.5C185.142 117.5 188.5 114.142 188.5 110C188.5 105.858 185.142 102.5 181 102.5C176.858 102.5 173.5 105.858 173.5 110C173.5 114.142 176.858 117.5 181 117.5Z" fill="#10B981"/>
	<path d="M177.516 112.5V108.136H179.238C179.567 108.136 179.848 108.195 180.081 108.313C180.316 108.43 180.494 108.595 180.616 108.81C180.74 109.023 180.801 109.273 180.801 109.562C180.801 109.852 180.739 110.101 180.614 110.31C180.489 110.517 180.308 110.676 180.071 110.787C179.835 110.898 179.549 110.953 179.214 110.953H178.061V110.212H179.065C179.241 110.212 179.387 110.187 179.504 110.139C179.62 110.091 179.707 110.018 179.764 109.922C179.822 109.825 179.851 109.705 179.851 109.562C179.851 109.417 179.822 109.295 179.764 109.195C179.707 109.096 179.62 109.021 179.502 108.969C179.385 108.917 179.238 108.891 179.061 108.891H178.439V112.5H177.516ZM179.873 110.514L180.957 112.5H179.939L178.877 110.514H179.873ZM182.319 108.136L183.199 109.624H183.233L184.117 108.136H185.159L183.827 110.318L185.189 112.5H184.127L183.233 111.011H183.199L182.304 112.5H181.247L182.613 110.318L181.272 108.136H182.319Z" fill="white"/>
	<path d="M111.909 85.1278C111.42 85.1259 111 85.0057 110.648 84.767C110.297 84.5284 110.027 84.1828 109.838 83.7301C109.651 83.2775 109.558 82.733 109.56 82.0966C109.56 81.4621 109.653 80.9214 109.841 80.4744C110.03 80.0275 110.3 79.6875 110.651 79.4545C111.003 79.2197 111.422 79.1023 111.909 79.1023C112.396 79.1023 112.814 79.2197 113.165 79.4545C113.517 79.6894 113.788 80.0303 113.977 80.4773C114.167 80.9223 114.26 81.4621 114.259 82.0966C114.259 82.7348 114.164 83.2803 113.974 83.733C113.787 84.1856 113.518 84.5312 113.168 84.7699C112.817 85.0085 112.398 85.1278 111.909 85.1278ZM111.909 84.108C112.242 84.108 112.509 83.9403 112.707 83.6051C112.906 83.2699 113.005 82.767 113.003 82.0966C113.003 81.6553 112.957 81.2879 112.866 80.9943C112.777 80.7008 112.651 80.4801 112.486 80.3324C112.323 80.1847 112.131 80.1108 111.909 80.1108C111.578 80.1108 111.313 80.2765 111.114 80.608C110.915 80.9394 110.814 81.4356 110.812 82.0966C110.812 82.5436 110.857 82.9167 110.946 83.2159C111.037 83.5133 111.165 83.7367 111.33 83.8864C111.494 84.0341 111.688 84.108 111.909 84.108ZM117.667 79.1818V85H116.437V80.3494H116.403L115.07 81.1847V80.0938L116.511 79.1818H117.667ZM121.331 85.1278C120.842 85.1259 120.422 85.0057 120.07 84.767C119.719 84.5284 119.449 84.1828 119.26 83.7301C119.072 83.2775 118.98 82.733 118.982 82.0966C118.982 81.4621 119.075 80.9214 119.263 80.4744C119.452 80.0275 119.722 79.6875 120.072 79.4545C120.425 79.2197 120.844 79.1023 121.331 79.1023C121.818 79.1023 122.236 79.2197 122.587 79.4545C122.939 79.6894 123.21 80.0303 123.399 80.4773C123.589 80.9223 123.682 81.4621 123.68 82.0966C123.68 82.7348 123.586 83.2803 123.396 83.733C123.209 84.1856 122.94 84.5312 122.589 84.7699C122.239 85.0085 121.82 85.1278 121.331 85.1278ZM121.331 84.108C121.664 84.108 121.93 83.9403 122.129 83.6051C122.328 83.2699 122.427 82.767 122.425 82.0966C122.425 81.6553 122.379 81.2879 122.288 80.9943C122.199 80.7008 122.072 80.4801 121.908 80.3324C121.745 80.1847 121.553 80.1108 121.331 80.1108C121 80.1108 120.734 80.2765 120.536 80.608C120.337 80.9394 120.236 81.4356 120.234 82.0966C120.234 82.5436 120.279 82.9167 120.368 83.2159C120.459 83.5133 120.587 83.7367 120.751 83.8864C120.916 84.0341 121.109 84.108 121.331 84.108ZM127.089 79.1818V85H125.859V80.3494H125.825L124.492 81.1847V80.0938L125.933 79.1818H127.089ZM130.753 85.1278C130.264 85.1259 129.844 85.0057 129.491 84.767C129.141 84.5284 128.871 84.1828 128.682 83.7301C128.494 83.2775 128.402 82.733 128.403 82.0966C128.403 81.4621 128.497 80.9214 128.685 80.4744C128.874 80.0275 129.144 79.6875 129.494 79.4545C129.847 79.2197 130.266 79.1023 130.753 79.1023C131.24 79.1023 131.658 79.2197 132.009 79.4545C132.361 79.6894 132.632 80.0303 132.821 80.4773C133.01 80.9223 133.104 81.4621 133.102 82.0966C133.102 82.7348 133.008 83.2803 132.818 83.733C132.631 84.1856 132.362 84.5312 132.011 84.7699C131.661 85.0085 131.241 85.1278 130.753 85.1278ZM130.753 84.108C131.086 84.108 131.352 83.9403 131.551 83.6051C131.75 83.2699 131.848 82.767 131.847 82.0966C131.847 81.6553 131.801 81.2879 131.71 80.9943C131.621 80.7008 131.494 80.4801 131.33 80.3324C131.167 80.1847 130.974 80.1108 130.753 80.1108C130.421 80.1108 130.156 80.2765 129.957 80.608C129.759 80.9394 129.658 81.4356 129.656 82.0966C129.656 82.5436 129.701 82.9167 129.79 83.2159C129.881 83.5133 130.009 83.7367 130.173 83.8864C130.338 84.0341 130.531 84.108 130.753 84.108ZM136.511 79.1818V85H135.281V80.3494H135.246L133.914 81.1847V80.0938L135.354 79.1818H136.511ZM140.175 85.1278C139.686 85.1259 139.266 85.0057 138.913 84.767C138.563 84.5284 138.293 84.1828 138.104 83.7301C137.916 83.2775 137.823 82.733 137.825 82.0966C137.825 81.4621 137.919 80.9214 138.107 80.4744C138.296 80.0275 138.566 79.6875 138.916 79.4545C139.268 79.2197 139.688 79.1023 140.175 79.1023C140.661 79.1023 141.08 79.2197 141.43 79.4545C141.783 79.6894 142.054 80.0303 142.243 80.4773C142.432 80.9223 142.526 81.4621 142.524 82.0966C142.524 82.7348 142.429 83.2803 142.24 83.733C142.053 84.1856 141.784 84.5312 141.433 84.7699C141.083 85.0085 140.663 85.1278 140.175 85.1278ZM140.175 84.108C140.508 84.108 140.774 83.9403 140.973 83.6051C141.172 83.2699 141.27 82.767 141.268 82.0966C141.268 81.6553 141.223 81.2879 141.132 80.9943C141.043 80.7008 140.916 80.4801 140.751 80.3324C140.589 80.1847 140.396 80.1108 140.175 80.1108C139.843 80.1108 139.578 80.2765 139.379 80.608C139.18 80.9394 139.08 81.4356 139.078 82.0966C139.078 82.5436 139.123 82.9167 139.212 83.2159C139.303 83.5133 139.43 83.7367 139.595 83.8864C139.76 84.0341 139.953 84.108 140.175 84.108ZM145.933 79.1818V85H144.702V80.3494H144.668L143.336 81.1847V80.0938L144.776 79.1818H145.933Z" fill="#1F2937"/>
	<path d="M170 15H86C81.5817 15 78 18.5817 78 23C78 27.4183 81.5817 31 86 31H170C174.418 31 178 27.4183 178 23C178 18.5817 174.418 15 170 15Z" fill="#1F2937"/>
	<path d="M170 16H86C82.134 16 79 19.134 79 23C79 26.866 82.134 30 86 30H170C173.866 30 177 26.866 177 23C177 19.134 173.866 16 170 16Z" fill="url(#paint2_linear_2_546)"/>
	<path d="M104.219 21.337C104.193 21.0792 104.083 20.8789 103.89 20.7362C103.696 20.5934 103.433 20.522 103.1 20.522C102.874 20.522 102.684 20.554 102.528 20.6179C102.373 20.6797 102.253 20.766 102.17 20.8768C102.089 20.9876 102.049 21.1133 102.049 21.2539C102.044 21.3711 102.069 21.4734 102.122 21.5607C102.178 21.6481 102.253 21.7237 102.349 21.7876C102.445 21.8494 102.556 21.9038 102.682 21.9506C102.807 21.9954 102.941 22.0337 103.084 22.0657L103.672 22.2063C103.958 22.2702 104.22 22.3555 104.458 22.462C104.697 22.5685 104.904 22.6996 105.079 22.8551C105.253 23.0107 105.389 23.1939 105.484 23.4048C105.582 23.6158 105.633 23.8576 105.635 24.1303C105.633 24.5309 105.53 24.8782 105.328 25.1722C105.128 25.4641 104.838 25.6911 104.458 25.853C104.081 26.0128 103.626 26.0927 103.094 26.0927C102.565 26.0927 102.105 26.0117 101.713 25.8498C101.323 25.6879 101.019 25.4482 100.799 25.1307C100.582 24.8111 100.468 24.4158 100.457 23.945H101.796C101.811 24.1644 101.874 24.3477 101.985 24.4947C102.098 24.6396 102.248 24.7493 102.435 24.8239C102.625 24.8963 102.839 24.9325 103.078 24.9325C103.312 24.9325 103.516 24.8984 103.688 24.8303C103.863 24.7621 103.998 24.6673 104.094 24.5458C104.19 24.4244 104.238 24.2848 104.238 24.1271C104.238 23.9801 104.194 23.8565 104.107 23.7564C104.022 23.6562 103.896 23.571 103.73 23.5007C103.566 23.4304 103.364 23.3665 103.126 23.3089L102.413 23.13C101.861 22.9957 101.425 22.7859 101.106 22.5004C100.786 22.2148 100.628 21.8303 100.63 21.3466C100.628 20.9503 100.733 20.604 100.946 20.3079C101.161 20.0117 101.456 19.7805 101.831 19.6143C102.206 19.4482 102.633 19.3651 103.11 19.3651C103.596 19.3651 104.02 19.4482 104.382 19.6143C104.746 19.7805 105.03 20.0117 105.232 20.3079C105.434 20.604 105.539 20.9471 105.545 21.337H104.219ZM106.565 26V19.4545H110.976V20.5955H107.949V22.1552H110.749V23.2962H107.949V24.859H110.989V26H106.565ZM112.076 26V19.4545H114.659C115.153 19.4545 115.575 19.543 115.924 19.7198C116.276 19.8945 116.543 20.1428 116.726 20.4645C116.912 20.7841 117.004 21.1602 117.004 21.5927C117.004 22.0273 116.911 22.4013 116.723 22.7145C116.536 23.0256 116.264 23.2642 115.908 23.4304C115.555 23.5966 115.126 23.6797 114.623 23.6797H112.894V22.5675H114.4C114.664 22.5675 114.883 22.5312 115.058 22.4588C115.233 22.3864 115.363 22.2777 115.448 22.1328C115.535 21.9879 115.579 21.8079 115.579 21.5927C115.579 21.3754 115.535 21.1921 115.448 21.043C115.363 20.8938 115.232 20.7809 115.055 20.7042C114.88 20.6254 114.66 20.5859 114.393 20.5859H113.46V26H112.076ZM115.611 23.0213L117.238 26H115.71L114.118 23.0213H115.611ZM119.366 19.4545V26H117.982V19.4545H119.366ZM121.633 26H120.15L122.41 19.4545H124.193L126.45 26H124.967L123.327 20.9503H123.276L121.633 26ZM121.54 23.4272H125.043V24.5075H121.54V23.4272ZM127.237 26V19.4545H128.621V24.859H131.427V26H127.237ZM140.202 21.7461H138.802C138.777 21.565 138.724 21.4041 138.646 21.2635C138.567 21.1207 138.466 20.9993 138.342 20.8991C138.218 20.799 138.076 20.7223 137.914 20.669C137.754 20.6158 137.58 20.5891 137.393 20.5891C137.054 20.5891 136.759 20.6733 136.507 20.8416C136.256 21.0078 136.061 21.2507 135.923 21.5703C135.784 21.8878 135.715 22.2734 135.715 22.7273C135.715 23.1939 135.784 23.5859 135.923 23.9034C136.063 24.2209 136.259 24.4606 136.511 24.6225C136.762 24.7844 137.053 24.8654 137.383 24.8654C137.568 24.8654 137.74 24.8409 137.898 24.7919C138.057 24.7429 138.199 24.6715 138.323 24.5778C138.446 24.4819 138.549 24.3658 138.63 24.2294C138.713 24.093 138.77 23.9375 138.802 23.7628L140.202 23.7692C140.166 24.0696 140.075 24.3594 139.93 24.6385C139.788 24.9155 139.595 25.1637 139.352 25.3832C139.111 25.6005 138.823 25.7731 138.489 25.9009C138.157 26.0266 137.78 26.0895 137.361 26.0895C136.777 26.0895 136.255 25.9574 135.795 25.6932C135.337 25.429 134.974 25.0465 134.708 24.5458C134.444 24.0451 134.312 23.4389 134.312 22.7273C134.312 22.0135 134.446 21.4062 134.714 20.9055C134.983 20.4048 135.347 20.0234 135.807 19.7614C136.268 19.4972 136.785 19.3651 137.361 19.3651C137.74 19.3651 138.092 19.4183 138.415 19.5249C138.741 19.6314 139.03 19.7869 139.282 19.9915C139.533 20.1939 139.738 20.4421 139.895 20.7362C140.055 21.0302 140.157 21.3668 140.202 21.7461ZM147.209 22.7273C147.209 23.4411 147.074 24.0483 146.803 24.549C146.535 25.0497 146.168 25.4322 145.704 25.6964C145.242 25.9585 144.722 26.0895 144.144 26.0895C143.563 26.0895 143.041 25.9574 142.578 25.6932C142.116 25.429 141.75 25.0465 141.482 24.5458C141.214 24.0451 141.079 23.4389 141.079 22.7273C141.079 22.0135 141.214 21.4062 141.482 20.9055C141.75 20.4048 142.116 20.0234 142.578 19.7614C143.041 19.4972 143.563 19.3651 144.144 19.3651C144.722 19.3651 145.242 19.4972 145.704 19.7614C146.168 20.0234 146.535 20.4048 146.803 20.9055C147.074 21.4062 147.209 22.0135 147.209 22.7273ZM145.806 22.7273C145.806 22.2649 145.737 21.875 145.598 21.5575C145.462 21.2401 145.269 20.9993 145.02 20.8352C144.771 20.6712 144.479 20.5891 144.144 20.5891C143.81 20.5891 143.518 20.6712 143.269 20.8352C143.019 20.9993 142.825 21.2401 142.687 21.5575C142.551 21.875 142.482 22.2649 142.482 22.7273C142.482 23.1896 142.551 23.5795 142.687 23.897C142.825 24.2145 143.019 24.4553 143.269 24.6193C143.518 24.7834 143.81 24.8654 144.144 24.8654C144.479 24.8654 144.771 24.7834 145.02 24.6193C145.269 24.4553 145.462 24.2145 145.598 23.897C145.737 23.5795 145.806 23.1896 145.806 22.7273ZM148.234 19.4545H149.941L151.744 23.8523H151.82L153.623 19.4545H155.33V26H153.987V21.7397H153.933L152.239 25.968H151.325L149.631 21.7237H149.577V26H148.234V19.4545Z" fill="white"/>
	<path opacity="0.6" d="M90 70C86.6667 66.6667 85 62.5 85 57.5" stroke="url(#paint3_linear_2_546)" stroke-width="3" stroke-linecap="round"/>
	<path opacity="0.6" d="M80 80C75 75 72.5 68.3333 72.5 60" stroke="url(#paint4_linear_2_546)" stroke-width="3" stroke-linecap="round"/>
	<path opacity="0.6" d="M166 70C169.333 66.6667 171 62.5 171 57.5" stroke="url(#paint5_linear_2_546)" stroke-width="3" stroke-linecap="round"/>
	<path opacity="0.6" d="M176 80C181 75 183.5 68.3333 183.5 60" stroke="url(#paint6_linear_2_546)" stroke-width="3" stroke-linecap="round"/>
	<g opacity="0.7">
		<path d="M98 160H96C95.4477 160 95 160.448 95 161V167C95 167.552 95.4477 168 96 168H98C98.5523 168 99 167.552 99 167V161C99 160.448 98.5523 160 98 160Z" fill="#34D399"/>
		<path d="M160 160H158C157.448 160 157 160.448 157 161V167C157 167.552 157.448 168 158 168H160C160.552 168 161 167.552 161 167V161C161 160.448 160.552 160 160 160Z" fill="#10B981"/>
	</g>
	<path opacity="0.2" d="M115 102.5C121.904 102.5 127.5 96.9036 127.5 90C127.5 83.0964 121.904 77.5 115 77.5C108.096 77.5 102.5 83.0964 102.5 90C102.5 96.9036 108.096 102.5 115 102.5Z" fill="white"/>
	<path opacity="0.1" d="M128 145C144.569 145 158 140.523 158 135C158 129.477 144.569 125 128 125C111.431 125 98 129.477 98 135C98 140.523 111.431 145 128 145Z" fill="white"/>
	<defs>
		<linearGradient id="paint0_linear_2_546" x1="78" y1="95" x2="78" y2="11095" gradientUnits="userSpaceOnUse">
			<stop stop-color="#FBBF24"/>
			<stop offset="1" stop-color="#F59E0B"/>
		</linearGradient>
		<linearGradient id="paint1_linear_2_546" x1="88" y1="65" x2="88" y2="8065" gradientUnits="userSpaceOnUse">
			<stop stop-color="#FDE68A"/>
			<stop offset="1" stop-color="#FCD34D"/>
		</linearGradient>
		<linearGradient id="paint2_linear_2_546" x1="79" y1="16" x2="471" y2="2760" gradientUnits="userSpaceOnUse">
			<stop stop-color="#FCD34D"/>
			<stop offset="1" stop-color="#FBBF24"/>
		</linearGradient>
		<linearGradient id="paint3_linear_2_546" x1="85" y1="57.5" x2="585" y2="57.5" gradientUnits="userSpaceOnUse">
			<stop stop-color="#34D399"/>
			<stop offset="1" stop-color="#10B981"/>
		</linearGradient>
		<linearGradient id="paint4_linear_2_546" x1="72.5" y1="60" x2="822.5" y2="60" gradientUnits="userSpaceOnUse">
			<stop stop-color="#34D399"/>
			<stop offset="1" stop-color="#10B981"/>
		</linearGradient>
		<linearGradient id="paint5_linear_2_546" x1="166" y1="57.5" x2="666" y2="57.5" gradientUnits="userSpaceOnUse">
			<stop stop-color="#34D399"/>
			<stop offset="1" stop-color="#10B981"/>
		</linearGradient>
		<linearGradient id="paint6_linear_2_546" x1="176" y1="60" x2="926" y2="60" gradientUnits="userSpaceOnUse">
			<stop stop-color="#34D399"/>
			<stop offset="1" stop-color="#10B981"/>
		</linearGradient>
	</defs>
</svg>
